<svg width="11" height="20" viewBox="0 0 11 20" fill="none" xmlns="http://www.w3.org/2000/svg">
<path d="M10.712 19.7079C10.5496 19.8732 10.3354 19.9752 10.1068 19.996C9.87825 20.0169 9.64976 19.9552 9.46116 19.8219L9.32391 19.7079L0.501313 10.7091C0.339222 10.5434 0.23926 10.325 0.218839 10.0918C0.198418 9.85868 0.258832 9.62562 0.38956 9.43325L0.501313 9.29327L9.32391 0.294436C9.49682 0.11729 9.7285 0.0126286 9.9733 0.00107002C10.2181 -0.0104885 10.4583 0.0718994 10.6465 0.231997C10.8347 0.392092 10.9573 0.618284 10.9901 0.865997C11.0229 1.11371 10.9636 1.36497 10.8238 1.57027L10.712 1.71025L2.58149 10.0012L10.712 18.2921C10.8033 18.385 10.8757 18.4953 10.9251 18.6168C10.9746 18.7383 11 18.8685 11 19C11 19.1315 10.9746 19.2617 10.9251 19.3832C10.8757 19.5047 10.8033 19.615 10.712 19.7079Z" fill="white"/>
</svg>
