<svg width="15" height="15" viewBox="0 0 15 15" fill="none" xmlns="http://www.w3.org/2000/svg">
<path d="M14.5956 6.49264C14.7637 6.36735 14.8885 6.19256 14.9523 5.99279C15.0162 5.79301 15.0159 5.57827 14.9515 5.37867C14.8871 5.17907 14.7619 5.00462 14.5934 4.87978C14.4249 4.75494 14.2215 4.68597 14.0118 4.68255L9.9391 4.52869C9.91907 4.52731 9.89988 4.52017 9.88382 4.50812C9.86776 4.49608 9.85553 4.47965 9.84859 4.46081L8.44125 0.659621C8.37054 0.46623 8.24211 0.299239 8.07335 0.181257C7.90459 0.0632747 7.70365 0 7.49774 0C7.29183 0 7.09089 0.0632747 6.92213 0.181257C6.75337 0.299239 6.62494 0.46623 6.55423 0.659621L5.15141 4.47439C5.14447 4.49323 5.13224 4.50965 5.11618 4.5217C5.10012 4.53374 5.08093 4.54088 5.0609 4.54227L0.988196 4.69613C0.778499 4.69955 0.575132 4.76852 0.40661 4.89336C0.238088 5.01819 0.112862 5.19265 0.048491 5.39225C-0.0158804 5.59185 -0.0161692 5.80659 0.0476651 6.00636C0.111499 6.20614 0.236256 6.38092 0.404441 6.50622L3.59925 9.01772C3.61524 9.0303 3.62719 9.04729 3.63363 9.0666C3.64006 9.0859 3.6407 9.10666 3.63545 9.12632L2.53582 13.0225C2.47884 13.221 2.48436 13.4321 2.55163 13.6272C2.61891 13.8224 2.74467 13.9921 2.9118 14.1133C3.07894 14.2344 3.27934 14.3011 3.48574 14.3043C3.69214 14.3076 3.89452 14.2471 4.06535 14.1312L7.44117 11.8686C7.4578 11.8571 7.47753 11.851 7.49774 11.851C7.51795 11.851 7.53767 11.8571 7.5543 11.8686L10.9301 14.1312C11.0986 14.2511 11.3003 14.3155 11.5071 14.3155C11.7139 14.3155 11.9155 14.2511 12.0841 14.1312C12.2512 14.0112 12.3771 13.8424 12.4444 13.6479C12.5116 13.4534 12.517 13.2428 12.4597 13.0452L11.351 9.13538C11.3451 9.11575 11.3454 9.09478 11.3519 9.07535C11.3584 9.05591 11.3707 9.03895 11.3872 9.02677L14.5956 6.49264Z" fill="#FFE600"/>
</svg>
