<svg width="16" height="20" viewBox="0 0 16 20" fill="none" xmlns="http://www.w3.org/2000/svg">
<path d="M14.1949 9.99825C14.1949 10.7034 14.0774 11.3822 13.8624 12.0149L12.8447 10.9972C12.9113 10.6684 12.9448 10.3337 12.9447 9.99825V8.74803C12.9447 8.58224 13.0106 8.42325 13.1278 8.30602C13.245 8.18878 13.404 8.12292 13.5698 8.12292C13.7356 8.12292 13.8946 8.18878 14.0118 8.30602C14.1291 8.42325 14.1949 8.58224 14.1949 8.74803V9.99825ZM7.94384 14.9991C8.96652 14.9991 9.91669 14.6928 10.7093 14.1652L11.607 15.0641C10.7145 15.7113 9.66602 16.1096 8.56895 16.2181V18.7498H12.3196C12.4854 18.7498 12.6444 18.8156 12.7616 18.9329C12.8789 19.0501 12.9447 19.2091 12.9447 19.3749C12.9447 19.5407 12.8789 19.6997 12.7616 19.8169C12.6444 19.9341 12.4854 20 12.3196 20H3.56808C3.40229 20 3.24329 19.9341 3.12606 19.8169C3.00883 19.6997 2.94297 19.5407 2.94297 19.3749C2.94297 19.2091 3.00883 19.0501 3.12606 18.9329C3.24329 18.8156 3.40229 18.7498 3.56808 18.7498H7.31873V16.2181C5.77682 16.0631 4.34743 15.3409 3.30788 14.1917C2.26833 13.0424 1.69273 11.5479 1.69275 9.99825V8.74803C1.69275 8.58224 1.75861 8.42325 1.87584 8.30602C1.99307 8.18878 2.15207 8.12292 2.31786 8.12292C2.48365 8.12292 2.64265 8.18878 2.75988 8.30602C2.87711 8.42325 2.94297 8.58224 2.94297 8.74803V9.99825C2.94297 11.3246 3.46984 12.5966 4.40769 13.5344C5.34553 14.4722 6.61753 14.9991 7.94384 14.9991ZM11.6945 3.74716V9.84698L4.39072 2.5432C4.67695 1.7021 5.25237 0.989875 6.01455 0.533307C6.77672 0.076739 7.67619 -0.0945384 8.55283 0.0499665C9.42946 0.194471 10.2264 0.645381 10.8017 1.32242C11.377 1.99946 11.6934 2.8587 11.6945 3.74716Z" fill="white"/>
<path d="M9.80171 13.2576L4.19323 7.64789V9.99831C4.19304 10.6551 4.3653 11.3004 4.69279 11.8697C5.02028 12.4389 5.49151 12.9123 6.05935 13.2422C6.62718 13.5722 7.27172 13.7473 7.92847 13.75C8.58523 13.7527 9.23118 13.5829 9.80171 13.2576ZM0 1.68935L15.0026 16.692L15.8878 15.8068L0.885155 0.804199L0 1.68935Z" fill="white"/>
</svg>
