<svg width="20" height="19" viewBox="0 0 20 19" fill="none" xmlns="http://www.w3.org/2000/svg">
<path fill-rule="evenodd" clip-rule="evenodd" d="M13.7013 15.1883C14.0578 14.7922 14.286 14.2894 14.3538 13.7509L18.2413 15.5519C18.4315 15.6402 18.64 15.6777 18.8477 15.6607C19.0554 15.6437 19.2557 15.5729 19.4304 15.4547C19.6052 15.3365 19.7488 15.1746 19.8483 14.9838C19.9478 14.793 19.9999 14.5792 20 14.3621V4.63793C19.9998 4.42092 19.9477 4.2074 19.8483 4.01674C19.7488 3.82607 19.6053 3.66431 19.4308 3.54612C19.2562 3.42794 19.0561 3.35708 18.8486 3.33997C18.641 3.32286 18.4327 3.36004 18.2425 3.44815L14.3538 5.24911C14.2743 4.62241 13.9791 4.04716 13.5231 3.6305C13.0671 3.21383 12.4814 2.98415 11.875 2.98423H5.34L13.7025 15.1883H13.7013ZM1.05875 3.45988C0.731527 3.7007 0.464566 4.01992 0.280322 4.3907C0.096079 4.76148 -5.75179e-05 5.17296 2.58174e-08 5.59054V13.4095C2.58174e-08 14.1007 0.263392 14.7636 0.732233 15.2524C1.20107 15.7412 1.83696 16.0158 2.5 16.0158H9.66L1.05875 3.46118V3.45988ZM13.2413 19L0.74125 0.75583L1.75875 0L14.2587 18.2442L13.2413 19Z" fill="white"/>
</svg>
