<svg width="20" height="13" viewBox="0 0 20 13" fill="none" xmlns="http://www.w3.org/2000/svg">
<path fill-rule="evenodd" clip-rule="evenodd" d="M0 2.6C0 1.91044 0.263392 1.24912 0.732233 0.761522C1.20107 0.273928 1.83696 1.80066e-08 2.5 1.80066e-08H11.875C12.4814 -7.41624e-05 13.0671 0.229051 13.5231 0.644706C13.9791 1.06036 14.2743 1.63421 14.3538 2.2594L18.2413 0.4628C18.4315 0.374623 18.64 0.337303 18.8477 0.354231C19.0554 0.37116 19.2557 0.4418 19.4304 0.559731C19.6052 0.677663 19.7488 0.839145 19.8483 1.0295C19.9478 1.21986 19.9999 1.43305 20 1.6497V11.3503C19.9998 11.5668 19.9477 11.7798 19.8483 11.97C19.7488 12.1602 19.6053 12.3216 19.4308 12.4395C19.2562 12.5574 19.0561 12.628 18.8486 12.6451C18.641 12.6622 18.4327 12.6251 18.2425 12.5372L14.3538 10.7406C14.2743 11.3658 13.9791 11.9396 13.5231 12.3553C13.0671 12.7709 12.4814 13.0001 11.875 13H2.5C1.83696 13 1.20107 12.7261 0.732233 12.2385C0.263392 11.7509 0 11.0896 0 10.4V2.6Z" fill="white"/>
</svg>
