<svg width="11" height="20" viewBox="0 0 11 20" fill="none" xmlns="http://www.w3.org/2000/svg">
<path d="M0.287996 0.292086C0.450441 0.126757 0.664605 0.0247971 0.893176 0.0039682C1.12175 -0.0168607 1.35024 0.0447628 1.53884 0.178102L1.67609 0.292086L10.4987 9.29092C10.6608 9.45661 10.7607 9.67505 10.7812 9.90819C10.8016 10.1413 10.7412 10.3744 10.6104 10.5668L10.4987 10.7067L1.67609 19.7056C1.50318 19.8827 1.2715 19.9874 1.0267 19.9989C0.781891 20.0105 0.541719 19.9281 0.353513 19.768C0.165308 19.6079 0.0427192 19.3817 0.00990689 19.134C-0.0229054 18.8863 0.0364389 18.635 0.176244 18.4297L0.287996 18.2897L8.41851 9.99883L0.287996 1.7079C0.196705 1.61502 0.124276 1.50469 0.0748565 1.38321C0.0254373 1.26174 0 1.13151 0 0.999994C0 0.868477 0.0254373 0.738251 0.0748565 0.616777C0.124276 0.495302 0.196705 0.384966 0.287996 0.292086Z" fill="white"/>
</svg>
