<svg width="20" height="27" viewBox="0 0 20 27" fill="none" xmlns="http://www.w3.org/2000/svg">
<path d="M10 0C4.47143 0 0 4.2255 0 9.45C0 11.799 0.714285 13.9995 2.01429 15.984C3.37143 18.063 5.15714 19.845 6.52857 21.924C7.2 22.9365 7.68571 23.8815 8.2 24.975C8.57143 25.7175 8.87143 27 10 27C11.1286 27 11.4286 25.7175 11.7857 24.975C12.3143 23.8815 12.7857 22.9365 13.4571 21.924C14.8286 19.8585 16.6143 18.0765 17.9714 15.984C19.2857 13.9995 20 11.799 20 9.45C20 4.2255 15.5286 0 10 0ZM10 13.1625C8.02857 13.1625 6.42857 11.6505 6.42857 9.7875C6.42857 7.9245 8.02857 6.4125 10 6.4125C11.9714 6.4125 13.5714 7.9245 13.5714 9.7875C13.5714 11.6505 11.9714 13.1625 10 13.1625Z" fill="#514EF7"/>
</svg>
